<svg xmlns="http://www.w3.org/2000/svg" viewBox="0 0 32 32" width="64" height="64" fill="#00f2fe">
  <!-- Rocket body with a cutout circle window (evenodd fill rule) -->
  <path 
    d="M16 2C14.2 6.5 12 10.5 12 15.5H20C20 10.5 17.8 6.5 16 2Z M16 7.2C15 7.2 14.2 8 14.2 9C14.2 10 15 10.8 16 10.8C17 10.8 17.8 10 17.8 9C17.8 8 17 7.2 16 7.2Z" 
    fill-rule="evenodd" 
  />
  <!-- Sleek triangular fins -->
  <path d="M12 11L9 16C8.8 16.3 9 16.5 9.4 16.5H12V11Z" />
  <path d="M20 11L23 16C23.2 16.3 23 16.5 22.6 16.5H20V11Z" />
  <!-- Engine nozzle -->
  <path d="M14.5 15.5L13.5 17.5H18.5L17.5 15.5H14.5Z" />
  
  <!-- Exhaust Flame -->
  <path d="M14 18.5C14 21.5 15.2 24.5 16 26.5C16.8 24.5 18 21.5 18 18.5H14Z" opacity="0.85" />
  
  <!-- Stable Tiled Launchpad at the bottom (Metaphor) -->
  <!-- Left Pad Tiles -->
  <rect x="2" y="27" width="4" height="3" rx="0.5" opacity="0.4" />
  <rect x="7" y="27" width="4" height="3" rx="0.5" opacity="0.6" />
  <rect x="3" y="23" width="4" height="3" rx="0.5" opacity="0.3" />
  <rect x="8" y="22" width="3" height="3" rx="0.5" opacity="0.5" />
  
  <!-- Right Pad Tiles -->
  <rect x="26" y="27" width="4" height="3" rx="0.5" opacity="0.4" />
  <rect x="21" y="27" width="4" height="3" rx="0.5" opacity="0.6" />
  <rect x="25" y="23" width="4" height="3" rx="0.5" opacity="0.3" />
  <rect x="21" y="22" width="3" height="3" rx="0.5" opacity="0.5" />
  
  <!-- Floating / Displaced Tiles due to Lift-Off Thrust -->
  <rect x="11.5" y="20" width="3" height="2.5" rx="0.5" transform="rotate(-15 13 21)" opacity="0.8" />
  <rect x="17.5" y="20.5" width="2.5" height="2.5" rx="0.5" transform="rotate(10 18.75 21.75)" opacity="0.85" />
  <rect x="13.5" y="24.5" width="5" height="3" rx="0.5" transform="rotate(8 16 26)" opacity="0.9" />
  
  <!-- Floating Sparks/Small Tiles -->
  <rect x="10.5" y="16.5" width="1.5" height="1.5" rx="0.3" transform="rotate(30 11.25 17.25)" opacity="0.7" />
  <rect x="20" y="17" width="1.5" height="1.5" rx="0.3" transform="rotate(-25 20.75 17.75)" opacity="0.7" />
  <rect x="15.25" y="22.5" width="1.5" height="1.5" rx="0.3" transform="rotate(45 16 23.25)" opacity="0.9" />
</svg>
